<svg width="24" height="24" viewBox="0 0 24 24" fill="none" xmlns="http://www.w3.org/2000/svg">
<path d="M18.1914 23.0846C17.922 23.0846 17.654 23.002 17.4234 22.8373L12 18.948L6.57668 22.8373C6.35198 22.999 6.08195 23.0855 5.80515 23.0845C5.52835 23.0836 5.25892 22.9952 5.03535 22.832C4.81157 22.6697 4.64465 22.441 4.55835 22.1784C4.47206 21.9158 4.47077 21.6327 4.55468 21.3693L6.57735 14.8413L1.20268 11.054C0.979936 10.8896 0.814512 10.6593 0.729808 10.3958C0.645105 10.1322 0.645411 9.84869 0.730681 9.58531C0.816625 9.32257 0.982965 9.09349 1.20619 8.93043C1.42942 8.76738 1.69825 8.6786 1.97468 8.67665L8.63135 8.66665L10.7507 2.30065C10.8381 2.0384 11.0059 1.81031 11.2302 1.64868C11.4545 1.48706 11.7239 1.40009 12.0003 1.40009C12.2768 1.40009 12.5462 1.48706 12.7705 1.64868C12.9948 1.81031 13.1626 2.0384 13.25 2.30065L15.3334 8.66665L22.024 8.67665C22.3008 8.67821 22.57 8.76694 22.7935 8.93024C23.0169 9.09354 23.1832 9.3231 23.2688 9.58631C23.3543 9.84952 23.3548 10.133 23.27 10.3965C23.1853 10.6599 23.0196 10.89 22.7967 11.054L17.422 14.8413L19.4447 21.3693C19.5288 21.6326 19.5276 21.9157 19.4415 22.1783C19.3553 22.441 19.1884 22.6697 18.9647 22.832C18.7404 22.9965 18.4695 23.085 18.1914 23.0846V23.0846Z" fill="#FFAC33"/>
</svg>
